<svg xmlns="http://www.w3.org/2000/svg" viewBox="0 0 504.21 457.43"><defs><style>.a{fill:#115ca8;}.b{fill:none;stroke-width:5.07px;}.b,.c,.d{stroke:#fff;stroke-miterlimit:10;}.c,.f{fill:#0f5ba8;}.c,.d{stroke-width:1.49px;}.d,.e{fill:#fff;}</style></defs><rect class="a" x="117.75" y="54.38" width="265.14" height="339.46" rx="3.32" transform="translate(26.21 474.43) rotate(-90)"/><rect class="b" x="138.57" y="76.47" width="224.62" height="294.2" transform="translate(27.32 474.45) rotate(-90)"/><circle class="c" cx="148.98" cy="247.74" r="21.94"/><circle class="c" cx="138.59" cy="263.75" r="16.01"/><circle class="c" cx="178.41" cy="277.17" r="29.43"/><path class="d" d="M181.59,261l15.85,18.83S206.85,258.78,181.59,261Z"/><path class="e" d="M140.26,253.5l8.62,10.25S154,252.31,140.26,253.5Z"/><path class="e" d="M150.23,232.26l11.81,14S169.06,230.62,150.23,232.26Z"/><circle class="c" cx="352.81" cy="177.35" r="18.42"/><path class="d" d="M352.81,165.14l10.7,12.72S369.87,163.65,352.81,165.14Z"/><circle class="c" cx="339.92" cy="136.61" r="13.06"/><path class="e" d="M339.92,128l7.6,9S352,126.9,339.92,128Z"/><rect class="f" x="53.25" y="91.54" width="21.95" height="265.14" rx="1.92"/><rect class="f" x="424.98" y="91.54" width="21.95" height="265.14" rx="1.92"/></svg>