<svg xmlns="http://www.w3.org/2000/svg" viewBox="0 0 504.21 457.43"><defs><style>.a,.c{fill:#115ca8;}.b{fill:none;stroke:#115ca8;stroke-width:3.58px;}.b,.c{stroke-miterlimit:10;}.c{stroke:#fff;stroke-width:1.6px;}.d{fill:#fff;}</style></defs><path class="a" d="M97.58,77.08v275.5A13.41,13.41,0,0,0,111,366h275.5a13.41,13.41,0,0,0,13.41-13.41V77.08a13.41,13.41,0,0,0-13.41-13.41H111A13.41,13.41,0,0,0,97.58,77.08Zm19.3,282.36a9.19,9.19,0,1,1,9.19-9.19A9.19,9.19,0,0,1,116.88,359.44Zm0-267.34a9.19,9.19,0,1,1,9.19-9.18A9.18,9.18,0,0,1,116.88,92.1ZM339.61,277.89H157.87a5.25,5.25,0,0,1-5.25-5.25V261.8a5.25,5.25,0,0,1,5.25-5.25H339.61a5.25,5.25,0,0,1,5.25,5.25v10.84A5.25,5.25,0,0,1,339.61,277.89Zm0-52.39H157.87a5.25,5.25,0,0,1-5.25-5.25V209.41a5.25,5.25,0,0,1,5.25-5.25H339.61a5.25,5.25,0,0,1,5.25,5.25v10.84A5.25,5.25,0,0,1,339.61,225.5Zm0-52.38H157.87a5.26,5.26,0,0,1-5.25-5.26V157a5.26,5.26,0,0,1,5.25-5.26H339.61a5.26,5.26,0,0,1,5.25,5.26v10.83A5.26,5.26,0,0,1,339.61,173.12Zm43.7,186.32a9.19,9.19,0,1,1,9.18-9.19A9.19,9.19,0,0,1,383.31,359.44Zm0-267.34a9.19,9.19,0,1,1,9.18-9.18A9.18,9.18,0,0,1,383.31,92.1Z"/><line class="b" x1="125.9" y1="74.91" x2="107.7" y2="91.81"/><line class="b" x1="392.32" y1="74.91" x2="374.13" y2="91.81"/><line class="b" x1="125.9" y1="341.9" x2="107.7" y2="358.8"/><line class="b" x1="392.32" y1="341.9" x2="374.13" y2="358.8"/><circle class="c" cx="309.78" cy="106.92" r="31.59"/><path class="d" d="M313.2,89.55l17,20.21S340.31,87.19,313.2,89.55Z"/><circle class="c" cx="163.01" cy="303.11" r="17.21"/><path class="d" d="M164.87,293.64l9.27,11S179.65,292.36,164.87,293.64Z"/><circle class="c" cx="278.2" cy="92.1" r="17.21"/><path class="d" d="M280.06,82.63l9.27,11S294.83,81.35,280.06,82.63Z"/></svg>